<mxfile host="app.diagrams.net" modified="2024-01-03T13:37:41.682Z" agent="Mozilla/5.0 (Windows NT 10.0; Win64; x64) AppleWebKit/537.36 (KHTML, like Gecko) Chrome/120.0.0.0 Safari/537.36" version="22.1.16" etag="efRDSHA1FOgc7JxAqaRz" type="google">
  <diagram id="4Cf1fz3ZzZLObb4t6m_b" name="Page-1">
    <mxGraphModel grid="1" page="1" gridSize="10" guides="1" tooltips="1" connect="1" arrows="1" fold="1" pageScale="1" pageWidth="827" pageHeight="1169" math="0" shadow="0">
      <root>
        <mxCell id="0" />
        <mxCell id="1" parent="0" />
        <mxCell id="2" value="Mutter" style="rounded=0;whiteSpace=wrap;html=1;" vertex="1" parent="1">
          <mxGeometry x="320" y="240" width="60" height="40" as="geometry" />
        </mxCell>
        <mxCell id="3" value="[0]" style="text;html=1;strokeColor=none;fillColor=none;align=center;verticalAlign=middle;whiteSpace=wrap;rounded=0;" vertex="1" parent="1">
          <mxGeometry x="320" y="210" width="60" height="30" as="geometry" />
        </mxCell>
        <mxCell id="4" value="Vater" style="rounded=0;whiteSpace=wrap;html=1;" vertex="1" parent="1">
          <mxGeometry x="380" y="240" width="60" height="40" as="geometry" />
        </mxCell>
        <mxCell id="5" value="[1]" style="text;html=1;strokeColor=none;fillColor=none;align=center;verticalAlign=middle;whiteSpace=wrap;rounded=0;" vertex="1" parent="1">
          <mxGeometry x="380" y="210" width="60" height="30" as="geometry" />
        </mxCell>
        <mxCell id="6" value="Heidi" style="rounded=0;whiteSpace=wrap;html=1;" vertex="1" parent="1">
          <mxGeometry x="440" y="240" width="60" height="40" as="geometry" />
        </mxCell>
        <mxCell id="7" value="[2]" style="text;html=1;strokeColor=none;fillColor=none;align=center;verticalAlign=middle;whiteSpace=wrap;rounded=0;fontColor=#000000;" vertex="1" parent="1">
          <mxGeometry x="440" y="210" width="60" height="30" as="geometry" />
        </mxCell>
        <mxCell id="8" value="Peter" style="rounded=0;whiteSpace=wrap;html=1;" vertex="1" parent="1">
          <mxGeometry x="500" y="240" width="60" height="40" as="geometry" />
        </mxCell>
        <mxCell id="9" value="[3]" style="text;html=1;strokeColor=none;fillColor=none;align=center;verticalAlign=middle;whiteSpace=wrap;rounded=0;" vertex="1" parent="1">
          <mxGeometry x="500" y="210" width="60" height="30" as="geometry" />
        </mxCell>
        <mxCell id="11" style="edgeStyle=none;html=1;exitX=1;exitY=0.5;exitDx=0;exitDy=0;entryX=0;entryY=0.5;entryDx=0;entryDy=0;" edge="1" parent="1" source="10" target="2">
          <mxGeometry relative="1" as="geometry" />
        </mxCell>
        <mxCell id="10" value="family" style="text;html=1;strokeColor=none;fillColor=none;align=center;verticalAlign=middle;whiteSpace=wrap;rounded=0;" vertex="1" parent="1">
          <mxGeometry x="220" y="245" width="60" height="30" as="geometry" />
        </mxCell>
        <mxCell id="BkgSJ07Nu7odqXlNwlHL-11" value="" style="rounded=0;whiteSpace=wrap;html=1;" vertex="1" parent="1">
          <mxGeometry x="560" y="240" width="60" height="40" as="geometry" />
        </mxCell>
        <mxCell id="BkgSJ07Nu7odqXlNwlHL-12" value="[4]" style="text;html=1;strokeColor=none;fillColor=none;align=center;verticalAlign=middle;whiteSpace=wrap;rounded=0;" vertex="1" parent="1">
          <mxGeometry x="560" y="210" width="60" height="30" as="geometry" />
        </mxCell>
        <mxCell id="BkgSJ07Nu7odqXlNwlHL-14" style="edgeStyle=orthogonalEdgeStyle;rounded=0;orthogonalLoop=1;jettySize=auto;html=1;exitX=0.5;exitY=1;exitDx=0;exitDy=0;" edge="1" parent="1" source="BkgSJ07Nu7odqXlNwlHL-11" target="BkgSJ07Nu7odqXlNwlHL-13">
          <mxGeometry relative="1" as="geometry">
            <Array as="points">
              <mxPoint x="590" y="315" />
            </Array>
          </mxGeometry>
        </mxCell>
        <mxCell id="BkgSJ07Nu7odqXlNwlHL-13" value="&#39;Klara&#39;" style="text;html=1;strokeColor=none;fillColor=none;align=center;verticalAlign=middle;whiteSpace=wrap;rounded=0;" vertex="1" parent="1">
          <mxGeometry x="220" y="300" width="60" height="30" as="geometry" />
        </mxCell>
      </root>
    </mxGraphModel>
  </diagram>
</mxfile>
